<svg xmlns="http://www.w3.org/2000/svg" xmlns:xlink="http://www.w3.org/1999/xlink" version="1.1" width="1000" height="1000" viewBox="0 0 1000 1000" xml:space="preserve">
<desc>Created with Fabric.js 3.5.0</desc>
<defs>
</defs>
<rect x="0" y="0" width="100%" height="100%" fill="##C850F2"/>
<g transform="matrix(0.1956 0 0 -0.1956 500.0207 500.0207)" id="136892">
<path style="stroke: none; stroke-width: 1; stroke-dasharray: none; stroke-linecap: butt; stroke-dashoffset: 0; stroke-linejoin: miter; stroke-miterlimit: 4; is-custom-font: none; font-file-url: none; fill: rgb(200,80,242); fill-rule: nonzero; opacity: 1;" vector-effect="non-scaling-stroke" transform=" translate(-2560, -2561.343)" d="M 2205 5106 c -41 -18 -82 -68 -94 -114 c -5 -20 -37 -152 -72 -292 c -34 -140 -65 -262 -70 -270 c -4 -9 -38 -26 -76 -40 c -37 -13 -111 -43 -163 -67 c -52 -24 -102 -42 -110 -40 c -8 2 -120 68 -248 145 c -128 78 -248 144 -267 148 c -71 13 -97 -6 -337 -244 c -125 -124 -235 -241 -244 -260 c -34 -72 -21 -105 144 -380 l 151 -252 l -33 -73 c -18 -39 -43 -103 -57 -141 c -15 -43 -31 -72 -44 -77 c -11 -5 -148 -40 -304 -78 c -287 -70 -315 -80 -355 -135 c -20 -27 -21 -40 -21 -376 c 0 -336 1 -349 21 -376 c 40 -54 68 -65 355 -135 c 156 -38 293 -73 304 -78 c 13 -5 29 -33 44 -77 c 14 -38 43 -110 67 -161 l 42 -91 l -136 -226 c -112 -188 -136 -235 -140 -275 c -3 -31 1 -58 11 -77 c 26 -48 478 -492 510 -500 c 67 -16 106 0 336 138 l 224 135 l 91 -42 c 50 -23 122 -53 160 -66 c 43 -15 72 -31 77 -44 c 5 -11 40 -148 78 -304 c 70 -287 81 -315 135 -355 c 27 -20 40 -21 376 -21 c 336 0 349 1 376 21 c 54 40 65 68 135 355 c 38 156 73 293 78 304 c 5 13 33 29 77 45 c 38 13 111 43 163 67 l 94 44 l 235 -141 c 222 -132 238 -140 287 -140 c 70 0 85 12 341 271 c 222 225 243 254 230 322 c -3 18 -69 137 -147 266 l -140 234 l 45 101 c 24 56 52 125 63 155 c 11 32 26 57 38 62 c 11 5 148 40 304 78 c 287 70 315 81 355 135 c 20 27 21 40 21 376 c 0 336 -1 349 -21 376 c -40 54 -68 65 -355 135 c -156 38 -293 73 -304 78 c -13 5 -29 34 -44 77 c -14 38 -42 107 -63 154 c -22 46 -37 92 -35 101 c 3 9 62 112 131 228 c 151 250 160 270 151 325 c -7 37 -29 63 -234 269 c -124 126 -239 238 -255 250 c -21 15 -45 21 -81 22 c -49 0 -64 -8 -289 -142 c -131 -79 -241 -143 -246 -143 c -4 0 -46 17 -92 38 c -45 21 -114 49 -152 63 c -43 15 -72 31 -77 44 c -5 11 -40 148 -78 304 c -70 287 -80 315 -135 355 c -26 20 -42 21 -364 23 c -265 2 -344 0 -367 -11 z m 498 -1507 c 415 -62 750 -354 865 -754 c 160 -552 -165 -1132 -723 -1293 c -552 -160 -1132 165 -1293 723 c -190 657 309 1325 996 1334 c 46 1 116 -4 155 -10 z" stroke-linecap="round"/>
</g>
</svg>